<?xml version="1.0" encoding="utf-8"?>
<!-- Generator: Adobe Illustrator 21.0.2, SVG Export Plug-In . SVG Version: 6.00 Build 0)  -->
<svg version="1.1" id="Layer_1" xmlns="http://www.w3.org/2000/svg" xmlns:xlink="http://www.w3.org/1999/xlink" x="0px" y="0px"
	 viewBox="0 0 40 40" style="enable-background:new 0 0 40 40;" xml:space="preserve">
<title>Asset 1</title>
<g id="Layer_2">
	<g id="Layer_1-2">
		<path d="M3.5,20.6C4,19.9,4.2,18.9,4.1,18c-0.2-0.6,0.4-1.2,1-1.4c0.6-0.2,1.2-0.2,1.7,0c0.3,0.2,0.5,0.5,0.5,0.8
			c0,0.5,0,1.3-0.7,1.4c-1,0.2-1.1,0.8-1.2,1.6c-0.1,1.4,0.2,2.8,1,4c0.5,0.8,0.8,1.4,1.7,1.6c0.7-0.5,1.4-1,2.1-1.6
			c1-0.7,2.1-1.2,3.4-1.5c0.4-0.1,0.7-0.1,1.1,0c1.3,0.2,2.5,0.5,3.6,1.1c0.9,0.5,1.5,1.5,1.6,2.6c0,0.4,0,0.7,0,1.1
			c0.2,1.1-0.4,2.3-1.4,2.8c-1.1,0.7-2.4,1.1-3.6,1.1c-1.6,0.1-3.1-0.4-4.4-1.2c-0.7-0.5-1.5-1-2.4-1.5c-0.2,0.1-0.6,0.2-0.7,0.5
			c-0.7,1.2-1.1,2.5-1.3,3.8c0,0.4,0.1,0.7,0.2,1c0,0.2,0,0.4,0,0.6c0,1.1-0.7,1.6-1.7,1C4.2,35.9,4,35.8,4,35.6
			c-0.1-0.6-0.4-1.3-0.1-2c0.2-0.4,0.2-0.8,0.3-1.2c0-1.2,0.5-2.4,1.4-3.2c1-1,1-1.6,0.1-2.7c-0.7-1-1.3-2-1.6-3.1L3.5,22V20.6z
			 M9,27.2c0.1,0.4,0.3,0.8,0.7,1.1c0.6,0.3,1.1,0.6,1.7,0.9c1.4,0.8,3.2,1,4.7,0.4c0.5-0.2,1-0.6,1.4-1c0.5-0.7,0.5-1.6,0-2.2
			c-1.5-1.9-4.2-2.3-6.2-0.9c-0.1,0.1-0.2,0.2-0.3,0.3C10.5,26.3,9.8,26.7,9,27.2L9,27.2z"/>
		<path d="M3.5,4L5,3.8c0.2,0.4,0.3,0.9,0.3,1.4C5.6,6.5,6.2,7.9,7.1,9C7.6,9.8,8.2,9.8,8.9,9c1-1.1,2.4-1.4,3.6-2
			C12.7,7,13,6.9,13.3,7C14,7,14.7,7,15.5,7c1.6-0.1,3.2,0.7,4,2.1c0.4,0.8,0.5,1.6,0.5,2.5c0.1,0.6-0.4,1.1-0.7,1.6
			c-0.9,1.2-2.2,1.9-3.7,2c-0.8,0-1.6,0-2.4-0.2c-1.6-0.2-3.2-0.8-4.4-1.9c-0.2-0.2-0.5-0.3-0.7-0.4c-0.6-0.2-0.9,0-1,0.6
			c-0.1,0.4-0.2,0.9-0.3,1.3c-0.2,0.6-0.7,1.1-1.3,1.2c-0.3,0.1-0.6,0-0.7-0.2c0,0,0-0.1,0-0.1c-0.2-0.6-0.1-1.2,0.3-1.7
			c0.2-0.3,0.4-0.5,0.6-0.7c0.6-0.4,0.9-1,0.8-1.7c0-0.6-0.2-1.3-0.6-1.8C4.9,8.6,4.3,7.4,4,6.1C4,5.8,3.9,5.5,3.5,5.5V4z
			 M14.5,13.4c1,0.1,1.9-0.2,2.7-0.8c0.9-0.4,1.3-1.5,0.8-2.4c-0.1-0.2-0.2-0.3-0.3-0.5c-0.8-0.9-1.8-1.4-3-1.4
			c-1.9-0.1-3.3,1-4.8,2c-0.2,0.1-0.3,0.2-0.4,0.4c-0.2,0.3-0.2,0.7,0.1,0.9c0,0,0,0,0.1,0C11,12.8,12.7,13.4,14.5,13.4z"/>
	</g>
</g>
</svg>
