<?xml version="1.0" encoding="utf-8"?>
<!-- Generator: Adobe Illustrator 21.0.2, SVG Export Plug-In . SVG Version: 6.00 Build 0)  -->
<svg version="1.1" id="Layer_1" xmlns="http://www.w3.org/2000/svg" xmlns:xlink="http://www.w3.org/1999/xlink" x="0px" y="0px"
	 viewBox="0 0 40 40" style="enable-background:new 0 0 40 40;" xml:space="preserve">
<title>Asset2 1</title>
<g id="Layer_2">
	<g id="Layer_1-2">
		<path d="M1.8,38c-0.7-1.3-0.2-2.5,0.3-3.7c0.7-2,1.3-4.1,1.8-6.2c0.7-3.6,0.4-7.2,0.4-10.9c0-2.2-0.3-4.5-0.8-6.7
			C3,8.7,2.4,7,1.9,5.3C1.8,4.8,1.6,4.3,1.5,3.9c-0.3-0.7,0-1.5,0.7-1.8C2.4,2.1,2.5,2,2.6,2c0.6-0.2,1.3-0.3,2-0.2
			c2.1,0.3,4.2,0.6,6.3,1.1c1,0.2,2,0.4,3,0.4c1.1-0.1,2.1,0,3.1,0.4c0.4,0.1,0.8,0.2,1.2,0.1c1.6-0.1,3.3-0.1,4.9-0.3
			c2.1-0.2,4.3,0.1,6.2-0.9c0.2-0.1,0.5-0.2,0.8-0.2l3.1-0.3l5.4-0.5v2.1c-0.4,0.8-0.8,1.6-1.1,2.4C37.2,6.8,37.2,7.5,37,8
			c-0.7,2.4-1.2,4.8-1.2,7.3c0,1.2-0.1,2.5-0.1,3.7c0,1.2,0,2.7,0,4.1C35.9,24.1,36,25,36,26c0,1.2,0.2,2.5,0.7,3.6
			c0.1,0.2,0.2,0.4,0.2,0.6c0,0.5,0,1-0.1,1.4c-0.1,0.3-0.4,0.5-0.7,0.5c-0.1,0-0.3-0.1-0.3-0.2c-0.4-0.4-0.8-0.8-1-1.4
			c-0.5-1.2-1.2-2.1-2.2-2.9c-1.3-1.3-2.7-2.4-4.2-3.3c-0.8-0.4-1.6-1-2.4-1.5c-1-0.6-2.1-1.2-3.1-1.8c-0.6-0.4-1.3-0.4-1.9-0.1
			c0.6,0.8,1.1,1.7,1.6,2.6c0.6,1.8,1.7,3.3,3,4.6c0.7,0.7,1.3,1.4,1.9,2.2c0.2,0.2,0.4,0.5,0.5,0.8c0.2,0.3,0,0.7-0.3,0.9
			c-0.1,0-0.2,0.1-0.3,0.1c-0.5,0.1-1.1-0.2-1.4-0.6c-2.2-2.1-3.9-4.5-5.1-7.2c-0.2-0.4-0.3-0.7-0.8-0.7c-0.3,0.9-0.7,1.7-1.1,2.6
			c-0.6,1.1-1.3,2.2-2.1,3.2c-1.1,1.6-2.2,3.3-4.1,4.2c0,0,0,0.1,0,0.2c0.2,0.4,0.6,0.6,1.1,0.4c0,0,0.1,0,0.1-0.1
			c0.7-0.3,1.5-0.4,2.2-0.4c0.4,0,0.8-0.1,1.1-0.2c0.9-0.3,1.8-0.4,2.7-0.2c1.6,0.3,3.2,0.5,4.8,0.4c1.1,0,2.2,0.1,3.3,0.1
			c0.5,0,1-0.1,1.4-0.3c0.5-0.4,1.2-0.4,1.7,0c0.6,0.4,1.3,0.8,1.9,1.2c1.1,0.7,2.3,0.8,3.5,0.4c0.4-0.7,0-1.4,0.7-1.8l1.1,0.9v2.9
			c-1.1,0.5-2.4,0.5-3.5,0c-1.7-0.7-3.5-0.6-5.2-1.3c0,0-0.1,0-0.1,0c-2.5-0.1-5-0.2-7.6-0.3c-2.2,0-4.4,0-6.7,0.1
			c-1.3,0-2.7,0.2-3.9,0.6c-1.1,0.4-2.3,0.7-3.5,1c-1.3,0.3-2.7,0.5-4,0.7c-0.1,0-0.9,0.1-1.1,0.2L1.8,38z M36.1,4
			c-1.5-0.4-1.9-0.5-2.6-0.3C32,4.2,30.7,5,29.6,6.1c-1.7,1.9-3.7,3.5-4.9,5.7c-0.1,0.2-0.3,0.4-0.5,0.6c-1.5,1.4-2,3.4-3.1,5.1
			c-0.3,0.5,0.1,1,0.7,0.9c0.2,0,0.4-0.1,0.6-0.2c1-0.5,2.1-0.9,3.1-1.5c1-0.5,1.9-1.1,2.8-1.8c1.3-1.1,2.5-2.3,3.7-3.5
			c0.3-0.3,0.6-0.5,0.9-0.7c0.6,0.5,0.6,1.4,0.1,2c-0.5,0.6-1,1.3-1.6,1.8c-2,1.9-4.3,3.5-6.8,4.6c-0.3,0.2-0.6,0.4-0.9,0.7
			c1.3,0.5,2.6,1.1,3.9,1.7c1.2,0.7,2.3,1.5,3.3,2.4c1.1,0.8,2,1.8,3,2.7c0.6-0.5,0.3-1,0.1-1.4c-0.5-1-0.6-2.2-0.3-3.3
			c0.1-0.4,0-0.8-0.1-1.2c-0.3-1.5-0.3-3-0.1-4.4c0.1-1.1,0.3-2.3,0.6-3.3c0.3-0.7,0.1-1.5-0.4-2c-0.6-0.5-0.6-1.4-0.1-1.9
			C34,9.1,34,9,34,9c0.2-0.2,0.4-0.5,0.6-0.7C35.5,7,36,5.6,36.1,4z M19.5,21.9c0-0.2-0.1-0.4-0.1-0.5c-0.2-1-0.7-1.1-1.5-0.6
			c-0.4,0.3-0.7,0.5-1.1,0.7c-1.2,0.6-2.4,1.3-3.6,2c-2.3,1.8-4.4,3.9-6.2,6.2c-0.3,0.3-0.5,0.7-0.7,1.1c-0.6,1.2-1.2,2.5-1.8,3.7
			c-0.2,0.4-0.3,0.7,0,1.1c0.3,0.4,0.8,0.5,1.2,0.3c0.4-0.2,0.8-0.4,1.2-0.5C8,35.2,9,34.7,9.8,34c1.7-1.3,3.2-2.8,4.4-4.5
			c0.7-0.9,1.4-1.7,2.1-2.6c0.4-0.4,0.7-0.9,0.9-1.4c0.3-1.1,0.9-2.1,1.8-2.9C19.3,22.4,19.4,22.1,19.5,21.9z M5.7,4.3
			C5.2,4.4,4.8,4.6,4.3,4.9C3.9,5.2,3.7,5.8,4,6.3c0.4,0.8,0.9,1.6,1.4,2.4c1.6,2.3,3.6,4.3,5.9,5.9c2,1.3,4,2.5,6.2,3.6
			c0.1,0.1,0.2,0.1,0.4,0.2c0.6,0.2,1.1-0.2,1-0.8c0-0.2-0.1-0.4-0.2-0.6c-0.3-0.8-0.7-1.5-1.1-2.2c-1.3-2.2-2.9-4.1-4.8-5.8
			c-0.4-0.2-0.8-0.5-1.1-0.8C10.2,6.7,8.7,5.5,7,4.7C6.6,4.5,6.2,4.4,5.7,4.3z M27.3,4.8c-1.4,0.9-3,0.5-4.6,0.7
			c-0.4,0.1-0.7,0.2-1.1,0.3c-0.6,0.2-1.2,0.3-1.9,0.3c-1,0-2,0-3-0.1c-1.4-0.2-2.9-0.4-4.3-0.7c-0.2-0.1-0.4-0.2-0.6-0.3
			c-0.2-0.1-0.4-0.1-0.7-0.2c-0.1,0.5,0.1,1.1,0.6,1.3C12.9,7,14.2,8,15.4,9.2c1.6,1.5,2.9,3.3,3.7,5.4c0.1,0.6,0.5,1.1,1.1,1.4
			l0.7-1.4c0.3-0.6,0.5-1.1,0.8-1.7c0.7-1.8,2.2-3,3.2-4.6C25.3,7.5,26,6.7,27,6.3C27.5,6.1,27.7,5.6,27.3,4.8z M5.9,12.8
			c-0.1,0.3-0.1,0.6,0,0.8c0.3,0.9,0.5,1.9,0.4,2.9c0,1.4,0.1,2.7,0.3,4.1c0.3,1.3,0.2,2.7-0.1,3.9c-0.2,0.7-0.3,1.5-0.4,2.2
			c0,0.2,0.1,0.5,0.3,0.6c0.1,0.1,0.4,0,0.6-0.2c0.3-0.3,0.6-0.7,0.9-1c0.9-1.2,1.9-2.2,3-3.1c0.8-0.5,1.5-1.2,2.3-1.7
			c0.8-0.7,1.7-1.1,2.7-1.3c0.2,0,0.4-0.3,0.8-0.5c-0.3-0.2-0.6-0.3-0.9-0.4c-0.6-0.2-1.3-0.4-1.9-0.6c-0.9-0.4-1.7-0.8-2.5-1.4
			c-1.6-1-3-2.2-4.2-3.6C6.9,13.1,6.6,12.6,5.9,12.8z"/>
	</g>
</g>
</svg>
