<?xml version="1.0" encoding="utf-8"?>
<!-- Generator: Adobe Illustrator 21.0.2, SVG Export Plug-In . SVG Version: 6.00 Build 0)  -->
<svg version="1.1" id="Layer_1" xmlns="http://www.w3.org/2000/svg" xmlns:xlink="http://www.w3.org/1999/xlink" x="0px" y="0px"
	 viewBox="0 0 40 40" style="enable-background:new 0 0 40 40;" xml:space="preserve">
<title>Asset 6</title>
<g id="Layer_2">
	<g id="Layer_1-2">
		<path d="M26.5,17.2c0,0.5,0,1,0.1,1.5c0.1,0.5,0,1-0.6,1.1s-0.7-0.4-0.9-0.9c-0.1-0.8-0.4-1.6-0.9-2.3c-1.6-1.8-3.6-2.8-6.2-1.8
			c-0.2-0.3-0.5-0.7-0.4-1.1c0.2-0.4,0.5-0.6,0.9-0.8c1.5-0.5,3.2-0.3,4.5,0.6c0.5,0.3,1,0.8,1.6,1.1c0.3,0.2,0.7,0.4,1.1,0.4
			c2.2-0.1,3,0.3,3.9,2.4c0,0.1,0.1,0.3,0.1,0.4c1.1,2.2,1.7,2.3,3.5,1.9c1.6-0.4,3-0.3,3.6,1c-0.1,0.8-0.9,1.4-1.8,1.3
			c-0.8,0-1.6-0.2-2.4-0.4c-1.7-0.4-2.7,0.1-3.1,1.8c-0.9,3-3.1,5.4-6,6.4c-1.7,0.7-3.5,0.9-5.2,0.8c-1.9-0.2-4-0.7-5.2-2.6
			c-0.4-0.6-1.1-1-1.5-1.6c-3.2-5.2-3.1-11,2.4-15.4c0.9-0.6,2-1.1,3.1-1.3c1.1-0.3,2.4-0.4,3.6-0.6c1.2-0.2,2.3,0.3,3.1,1.2
			c0.6,0.7,1.4,1.3,2.3,1.7c0.5,0.1,0.9,0.6,0.8,1.2c0,0,0,0.1,0,0.1c-0.3,0.7-0.9,0.6-1.4,0.4c-0.7-0.3-1.3-0.7-1.9-1.1
			c-2.2-1.9-5.4-2-7.7-0.4l-1.5,1c-2.1,1.5-3.1,4.1-2.5,6.5c0.2,0.5,0.2,1,0.2,1.5c0,1.5,0.3,2.9,1,4.2c0.5,1.3,1.8,1.7,2.8,2.3
			c1.7,1,3.7,1.2,5.5,0.5c1-0.4,2.2-0.2,3.1-1c2.5-2,4.2-4.4,4-7.8C28.5,18.4,27.7,17.4,26.5,17.2z"/>
		<path d="M23.9,19.8c0.1,2.1-1.4,3.9-3.5,4c0,0,0,0,0,0l0,0c-0.2,0.1-0.5,0.1-0.7,0c-0.4-0.2-0.9-0.5-0.9-0.8
			c-0.1-0.6,0.4-0.7,0.9-0.8c1.1,0,2.1-0.8,2.4-1.9c0.4-1-0.1-2.2-1.1-2.6c0,0-0.1,0-0.1,0l-0.2-0.1c-0.5-0.1-1-0.3-1.4-0.5
			c-0.4-0.2-0.6-0.6-0.7-1c0-0.6,0.6-0.6,1-0.6c2.3-0.1,4.2,1.6,4.3,3.9c0,0,0,0,0,0C23.9,19.6,23.9,19.7,23.9,19.8z"/>
		<path d="M19.8,25c1.3,0.2,2.7-0.2,3.7-1.1c0.4-0.4,0.7-0.8,0.9-1.3c0.3-0.5,0.4-1.1,1.1-1.1c0.2,0,0.6,0.2,0.6,0.4
			c0,0.5-0.1,1.1-0.3,1.5c-0.9,1.1-1.5,2.6-3,3.1c-0.6,0.2-1.2,0.4-1.8,0.5c-1,0.1-1.9,0.1-2.9,0c-0.5,0-1.2-0.2-1-0.8
			c0.1-0.5,0.5-0.8,0.9-1C18.7,24.9,19.3,24.9,19.8,25z"/>
	</g>
</g>
</svg>
