<?xml version="1.0" encoding="utf-8"?>
<!-- Generator: Adobe Illustrator 21.0.2, SVG Export Plug-In . SVG Version: 6.00 Build 0)  -->
<svg version="1.1" id="Layer_1" xmlns="http://www.w3.org/2000/svg" xmlns:xlink="http://www.w3.org/1999/xlink" x="0px" y="0px"
	 viewBox="0 0 40 40" style="enable-background:new 0 0 40 40;" xml:space="preserve">
<title>Asset 4</title>
<g id="Layer_2">
	<g id="Layer_1-2">
		<path d="M31.2,21c0,2.3-0.9,4.5-2.5,6.3c-1.8,2.1-4.3,3.5-7,3.9c-1.3,0.3-1.7,1-1.4,2.3c0.2,1,0.3,2.1,0.3,3.1
			c0.1,0.5-0.3,1.1-0.8,1.1c0,0,0,0-0.1,0h-0.3c-0.8,0-0.9-0.6-0.9-1.3c0-1,0.1-2,0.2-3c0.2-1.4-0.1-1.9-1.4-2.4
			c-1.3-0.5-2.6-1.1-3.8-1.9c-1.9-1.6-3.5-3.4-3.7-6.1c-0.1-0.4-0.2-0.9-0.3-1.3c-0.1-0.4-0.2-0.7-0.1-1.1c0.4-2.6,1.6-5.1,3.4-7
			c1.3-1.2,2.9-2.1,4.6-2.6c0.8-0.2,1.6-0.3,2.5-0.3c2.1-0.1,4.1,0.3,6,1.3c1.5,0.9,2.8,2.1,3.7,3.6c0.6,0.9,1,1.9,1.4,3
			C31.2,19.3,31.2,20.1,31.2,21z M29.2,21.5c0.1-1.5-0.2-3-0.8-4.3c-1-1.9-2.3-3.7-4.5-4.2c-1.6-0.5-3.3-0.6-5-0.4
			c-2,0.2-3.8,1.3-5.1,2.8c-1.9,2.3-3,4.7-1.9,7.9c0.9,2.5,2.1,4.6,4.7,5.6c0.3,0.1,0.6,0.3,0.9,0.4c1.1,0.7,2.4,0.7,3.5,0.1
			c0.4-0.2,0.9-0.3,1.3-0.3c0.4,0,0.8,0,1.2-0.1c1.7-0.7,3.2-1.8,4.4-3.3C28.9,24.5,29.4,23,29.2,21.5L29.2,21.5z"/>
		<path d="M24.4,25.3c0.5-0.7,0.8-1.4,1.1-2.2c0.2-1,0.3-2,0.4-3c0-0.5,0-1.1,0.7-1.1s1,0.4,1.1,1c0.1,0.5,0.1,1,0,1.5
			c-0.2,1-0.6,1.9-0.9,2.9c0,0.1-0.1,0.2-0.2,0.3l-4.1,2.9c-0.1,0-0.2,0.1-0.3,0.1c-0.8,0.3-1.6,0.1-1.7-0.4c-0.1-0.8,0.6-1,1.1-1.1
			C22.6,25.7,23.6,25.5,24.4,25.3z"/>
		<path d="M23.7,19.5c1.1,0.3,1.2,1,1,1.6c-0.4,1-0.9,2-1.5,3c-0.1,0.1-0.2,0.2-0.3,0.2c-1.5,0.5-3.1,0.4-4.6-0.2
			c-1.2-0.7-1.8-2-1.7-3.4c0.1-0.3,0.2-0.5,0.4-0.8c0.9,0.2,1,0.8,1.1,1.3c0.2,1.2,1.1,2.1,2.2,2.4c0.7,0.2,2.4-1.3,2.8-2.4
			C23.3,20.8,23.4,20.2,23.7,19.5z"/>
		<path d="M18.6,26.9c-0.2,0.1-0.5,0.1-0.8,0.2c-1.8-0.3-3.3-1.6-3.9-3.3c-0.2-1.2-0.3-2.4-0.5-3.6c0-0.2,0-0.4,0-0.6
			c0-0.5,0.3-1,0.9-1c0,0,0,0,0,0h0.2c0.7,0,0.9,0.5,0.8,1.1c-0.1,0.7-0.1,1.4-0.1,2.2c0.1,1.5,1,2.9,2.4,3.6
			C18.5,26,18.5,26,18.6,26.9z"/>
	</g>
</g>
</svg>
