<?xml version="1.0" encoding="utf-8"?>
<!-- Generator: Adobe Illustrator 21.0.2, SVG Export Plug-In . SVG Version: 6.00 Build 0)  -->
<svg version="1.1" id="Layer_1" xmlns="http://www.w3.org/2000/svg" xmlns:xlink="http://www.w3.org/1999/xlink" x="0px" y="0px"
	 viewBox="0 0 40 40" style="enable-background:new 0 0 40 40;" xml:space="preserve">
<title>Asset 1</title>
<g id="Layer_2">
	<g id="Layer_1-2">
		<path d="M20.5,24.1c-2.5-0.1-4.7-1.6-5.6-4c-0.3-1-0.7-2-1-3c-0.2-0.6-0.6-0.9-1.2-0.5c-1.1,0.5-2.1,1.1-3.1,1.8
			c-1.4,1.1-2.6,2.4-3.4,4c-0.4,0.7-0.6,1.6-0.9,2.4s-0.5,0.9-1.2,0.8c-0.7-0.1-0.8-0.3-0.8-1c0-0.4,0.1-0.9,0.2-1.3
			c1-2.2,2.4-4.2,4-5.9c0.4-0.4,0.9-0.7,1.3-1c0.6-0.4,1.3-0.8,2-1.1c0.3-0.2,0.7-0.3,1-0.3c0.9-0.1,1.7-0.7,1.9-1.6
			c0.1-0.3,0.2-0.7,0.3-1c0.5-2.3,1.7-4.4,3.5-6c1.4-1.5,3.2-2.6,5.1-3.2c0.8-0.3,1.7-0.3,2.6,0c0.4,0.1,0.8,0.3,0.8,0.8
			s-0.4,0.8-0.8,0.9C24.7,5,24,5.1,23.2,5.1c-0.8,0-1.5,0.3-2.1,0.7c-1.8,1.2-3.3,2.7-4.4,4.5c-0.5,0.6-0.8,1.3-0.9,2
			c0,0.2-0.2,0.5-0.4,0.7c-0.4,0.8-0.1,1.4,0.8,1.3c1.4-0.1,2.6,0.6,3.9,1c0.3,0.1,0.5,0.3,0.7,0.4c2.3,1.2,3,3.2,3.2,5.6
			c0,0.8-0.6,1.3-1.2,1.9C22.2,23.9,21.3,24.2,20.5,24.1z M15.2,16.2c0.2,1.5,0.7,3,1.5,4.3c0.8,1.3,2.3,2,3.8,1.9
			c0.4-0.1,0.7-0.2,1-0.5c0.6-0.7,0.8-1.6,0.4-2.5c-0.9-1.7-2.6-3-4.5-3.3C16.7,15.8,15.9,15.9,15.2,16.2z"/>
	</g>
</g>
</svg>
