<?xml version="1.0" encoding="utf-8"?>
<!-- Generator: Adobe Illustrator 21.0.2, SVG Export Plug-In . SVG Version: 6.00 Build 0)  -->
<svg version="1.1" id="Layer_1" xmlns="http://www.w3.org/2000/svg" xmlns:xlink="http://www.w3.org/1999/xlink" x="0px" y="0px"
	 viewBox="0 0 40 40" style="enable-background:new 0 0 40 40;" xml:space="preserve">
<title>Asset 1</title>
<g id="Layer_2">
	<g id="Layer_1-2">
		<path d="M14.7,24c0.1-0.5,0.2-1.1,0.2-1.6c0-1.4,0.4-2.8,1.1-4c0.1-0.3,0.3-0.7,0.5-0.9c0.3-0.2,0.6-0.4,1-0.4
			c0.4,0,0.8,0.4,0.7,0.8c0.1,0.5,0,1-0.4,1.5c-0.7,0.9-1.2,2-1.5,3.1c0,0.2-0.1,0.3,0,0.5c0,0.4-0.1,0.8,0.3,1.1
			c0.4,0.2,0.8,0,1.1-0.2c0.4-0.2,0.7-0.3,1.1-0.4c0.6-0.3,1.2-0.6,1.8-0.9c1.1-0.7,1.7-2,1.6-3.3c0-0.5,0-1,0-1.6s-0.3-0.9-0.9-0.9
			c-0.4,0-0.9-0.1-1.3-0.2c-0.3-0.1-0.7-0.4-0.6-0.6c0.1-0.3,0.3-0.6,0.6-0.8c1-0.3,2-0.1,2.8,0.6c0.2,0.2,0.4,0.4,0.5,0.6
			c0.4,0.5,1.1,0.9,1.2,1.4c0.2,1,0.1,2-0.2,2.9c-0.6,1.6-1.8,2.9-3.4,3.6c-1.1,0.7-2.3,1.1-3.5,1.3c-1,0.1-1.1,0.6-0.7,1.4
			c0.5,0.9,1.1,1.8,1.8,2.6c1.1,1.5,2.6,2.6,4.4,3.1c0.9,0.3,1.8,0.7,2.6,1.2c0.7,0.3,1.1,1.2,0.8,1.9c-0.4,0.9-0.9,1.1-1.8,0.6
			c-1.1-0.6-2.3-1.1-3.4-1.8c-1.4-0.9-3-1.7-3.9-3.1c-0.9-1.4-1.9-2.6-2.1-4.4c0-0.9-0.7-1.6-1.6-1.7c-1.6-0.3-3.2-0.9-4.6-1.7
			c-0.3-0.2-0.7-0.4-0.9-0.7c-1-1-2-1.9-2.9-2.9c-0.5-0.7-0.9-1.4-1.3-2.2c-0.2-0.3-0.3-0.6-0.5-1c-0.5-1-0.6-2-0.5-3.1
			c0.1-0.7,0.7-1,1.5-0.9c0.6,0.1,0.8,0.5,0.6,1.2c-0.3,1.6,0.1,3.2,1.2,4.4c0.8,1.1,1.8,2.1,2.9,3c0.9,0.8,2,1.4,3.2,1.8
			C13.3,23.6,13.7,24.2,14.7,24z"/>
	</g>
</g>
</svg>
