<?xml version="1.0" encoding="utf-8"?>
<!-- Generator: Adobe Illustrator 21.0.2, SVG Export Plug-In . SVG Version: 6.00 Build 0)  -->
<svg version="1.1" id="Layer_1" xmlns="http://www.w3.org/2000/svg" xmlns:xlink="http://www.w3.org/1999/xlink" x="0px" y="0px"
	 viewBox="0 0 40 40" style="enable-background:new 0 0 40 40;" xml:space="preserve">
<title>Asset 1</title>
<g id="Layer_2">
	<g id="Layer_1-2">
		<path d="M35.2,3.4c0.2,0.1,0.4,0.2,0.6,0.3C36,4,36.4,4.3,36.4,4.6c0,0.8,0,1.5-0.2,2.2c-0.4,1.2-0.8,2.3-1.4,3.4
			c-0.2,0.3-0.4,0.6-0.7,0.8c-0.7,0.6-0.8,0.9-0.3,1.7c0.3,0.5,0.7,1,1,1.5s0.6,1.1,0.9,1.7c0.1,0.2,0.1,0.4,0.2,0.5
			c0.7,0.5,0.5,1.3,0.7,2c0.1,0.4-0.2,0.8-0.6,1c-0.4,0.2-0.7-0.1-0.9-0.4c-0.4-0.5-0.6-1.1-0.7-1.7c-0.2-1.3-0.8-2.4-1.6-3.4
			c-0.3-0.3-0.7-0.2-1.1,0c-0.7,0.5-1.3,1-2,1.5c-0.6,0.5-1.3,0.8-2,0.9c-0.4,0-0.9,0.1-1.3,0.3c-0.7,0.3-1.4,0.2-2.1-0.1
			c-0.3-0.1-0.6-0.1-0.9-0.1c-1.2,0-2.3-0.7-2.7-1.8c-0.3-0.6-0.6-1.2-0.7-1.9c0-1.8,1-3.3,2.6-4c2.2-0.9,4.7-0.7,6.8,0.5
			c0.7,0.4,1.4,0.8,2.1,1.4c0.3,0.4,0.8,0.4,1.2,0.2c0.2-0.2,0.4-0.5,0.3-0.8c0-0.4,0.2-0.8,0.5-1.2c0.4-0.6,0.7-1.2,0.9-1.8
			c0-0.3,0-0.6-0.1-0.8C34.2,6,34.1,5.8,34,5.6c-0.6-1.1-0.5-1.5,0.5-2.2L35.2,3.4z M31.3,12.4c-0.8-0.6-1.4-1.4-2.2-1.6
			c-1.5-0.4-3-1.3-4.6-0.4c-0.1,0-0.2,0-0.4,0c-1,0.1-1.5,0.8-2.1,1.5c-0.3,0.4-0.2,0.9,0.1,1.2c1.1,1.4,3,2.1,4.8,1.7
			C28.6,14.5,29.9,13.6,31.3,12.4z"/>
		<path d="M35.2,36.6c-0.3-1-1-2-0.8-3.2c-0.4-1-0.9-1.9-1.5-2.8c-0.2-0.3-0.5-0.5-0.9-0.5c-0.5,0-0.5,0.4-0.7,0.7
			c-0.5,0.5-1,1-1.6,1.3c-0.9,0.5-1.8,0.9-2.7,1.1c-0.7,0.2-1.4,0.2-2.1,0.1c-0.5-0.2-1-0.1-1.5-0.3c-0.6-0.1-1.1-0.3-1.6-0.7
			c-1.3-1-1.9-2.6-1.6-4.2c0.3-1.4,1.4-2.4,2.7-2.7c0.8-0.2,1.5-0.4,2.3-0.5c0.7-0.1,1.4,0,2.1,0.1c1.4,0.4,2.8,1.1,4,2
			c0.5,0.4,1,0.6,1.7,0c0-0.7,0.2-1.3,0.7-1.9c0.4-0.6,0.7-1.2,0.8-1.9c0.1-0.4,0.1-0.8-0.1-1.1c-0.3-0.6-0.3-1.3,0.1-1.8
			c0.6-0.3,1,0,1.4,0.6c0.6,0.8,0.7,1.9,0.3,2.8c-0.2,0.5-0.4,1-0.5,1.6c-0.2,1-0.7,1.8-1.5,2.4c-0.5,0.2-0.7,0.8-0.5,1.3
			c0.1,0.1,0.1,0.2,0.2,0.3c0.3,0.4,0.6,0.7,0.9,1.1c0.4,0.6,0.7,1.2,1,1.8c0.4,0.8,0.7,1.6,1,2.4c0.2,0.7,0.1,1.5-0.4,2H35.2z
			 M26,26.5c-0.6-0.1-1.2,0.1-1.6,0.4c-0.2,0.1-0.3,0.2-0.5,0.2c-0.7,0.2-1.3,0.6-1.6,1.3c-0.4,0.5-0.3,1.2,0.1,1.6c0,0,0,0,0,0
			c1.2,1.3,3,1.8,4.7,1.3c1.2-0.3,2.3-0.9,3.2-1.7c0.7-0.5,0.8-1.1,0-1.6c-0.5-0.5-1.2-0.8-1.9-0.9c-0.3,0-0.6-0.1-0.8-0.3
			C27.2,26.5,26.6,26.4,26,26.5z"/>
	</g>
</g>
</svg>
