<?xml version="1.0" encoding="utf-8"?>
<!-- Generator: Adobe Illustrator 21.0.2, SVG Export Plug-In . SVG Version: 6.00 Build 0)  -->
<svg version="1.1" id="Layer_1" xmlns="http://www.w3.org/2000/svg" xmlns:xlink="http://www.w3.org/1999/xlink" x="0px" y="0px"
	 viewBox="0 0 40 40" style="enable-background:new 0 0 40 40;" xml:space="preserve">
<title>Asset 7</title>
<g id="Layer_2">
	<g id="Layer_1-2">
		<path d="M7.4,19h1.9c1,0,1.4-0.5,1.8-1.4c0.9-3.2,3.2-5.8,6.3-7c2.7-1.1,5.8-0.9,8.4,0.5c1.7,1,3.2,2.3,4.3,3.9
			c1,1.4,1.5,3.2,1.4,4.9c0,2-0.5,4-1.4,5.8c-0.9,1.7-2.2,3.1-3.9,4c-1.6,0.9-3.4,1.3-5.3,1.3c-2,0.1-3.9-0.5-5.3-1.8
			c-1.2-1.1-2.6-1.9-3.2-3.4c-0.6-1.2-1.1-2.4-1.5-3.6c-0.4-1.3-1-2-2.4-1.8c-0.6,0.1-1.2,0.3-1.8,0.3c-0.6,0.1-1.2,0-1.7-0.2
			c-0.4-0.2-0.7-0.5-0.8-0.9c0-0.6,0.6-0.8,1.1-0.8C5.9,18.8,6.7,18.9,7.4,19z M29.8,20.9c0.1-5.7-4.2-9.3-7.9-9.2
			c-6,0.1-9.5,3.4-9.6,8.3c-0.1,5,3.8,9.2,8.9,9.4h0.5C26.1,29.1,29.6,25.4,29.8,20.9z"/>
		<path d="M21.5,17.5c-0.3,0.2-0.7,0.4-1,0.6c-1.2,0.3-2.1,1.5-2,2.8c0.1,1.2,1,2.2,2.2,2.5c0.5,0.2,1.2,0.2,1.1,1
			c-0.2,0.8-0.9,0.6-1.5,0.4c-1.7-0.4-3.1-1.8-3.5-3.5c-0.2-1.3,0.3-2.6,1.3-3.3c0.6-0.5,1.2-0.8,1.9-1c0.5-0.1,0.9,0,1.4,0.1
			L21.5,17.5z"/>
		<path d="M16.3,24.4c0.5,0.1,1,0.3,1.5,0.5c1.1,0.8,2.4,1.2,3.7,1.1h0.4c0.3,0.2,0.5,0.4,0.8,0.6c-0.2,0.3-0.4,0.7-0.7,0.7
			c-0.9,0.2-1.9,0.2-2.9,0c-0.9-0.4-1.8-1-2.5-1.6C16.4,25.5,16.4,25,16.3,24.4z"/>
		<path d="M19.2,14.8c-0.2-0.4-0.1-0.8,0.3-1c0.1-0.1,0.3-0.1,0.4-0.1c1,0,2.2-0.5,2.9,0.7C22.1,15.5,21.3,15.6,19.2,14.8z"/>
	</g>
</g>
</svg>
