<?xml version="1.0" encoding="utf-8"?>
<!-- Generator: Adobe Illustrator 21.0.2, SVG Export Plug-In . SVG Version: 6.00 Build 0)  -->
<svg version="1.1" id="Layer_1" xmlns="http://www.w3.org/2000/svg" xmlns:xlink="http://www.w3.org/1999/xlink" x="0px" y="0px"
	 viewBox="0 0 40 40" style="enable-background:new 0 0 40 40;" xml:space="preserve">
<title>Asset 2</title>
<g id="Layer_2">
	<g id="Layer_1-2">
		<path d="M36.5,5.8l-3.6,3.3c0.3,2,1.8,3.2,2.6,5C35.4,15,35.6,16,36,16.8c0.2,0.4,0.2,0.8,0.2,1.3c0,0.8,0,1.7,0,2.5
			c0.1,1-0.1,1.9-0.5,2.8c-0.1,0.2-0.2,0.5-0.2,0.8c-0.2,1.3-0.7,2.5-1.6,3.5c-0.2,0.3-0.4,0.6-0.6,0.9l-1.2,1.8
			c0.9,1.4,2,2.6,3.3,3.5v1.3l-1.3,0.1c-0.5-0.6-1.1-1.3-1.6-1.9c-0.5-0.7-1.2-1.3-2-1.5c-0.5,0.4-1,0.8-1.6,1.2
			c-1.3,1.1-2.8,1.7-4.4,1.9c-0.1,0-0.2,0.1-0.3,0.1c-1.5,0.7-3.3,0.9-4.9,0.5c-1.5-0.1-3-0.5-4.5-0.9c-1.4-0.7-2.7-1.4-4-2.3
			c-0.5-0.3-0.9-0.6-1.4-0.9c-1.3,0.8-2.3,1.9-3,3.2c-0.5,0.9-0.5,0.9-1.8,0.8l-1-1.3c1.3-1.5,2.8-2.8,4.5-3.9
			c-0.6-0.8-1-1.5-1.4-2.1c-1.1-1.5-1.9-3.2-2.3-5C3.9,22,3.8,20.5,3.8,19c0-0.1,0-0.2,0-0.2c0.5-1.4,0.5-2.8,1-4.2
			c0.6-1.6,1.5-3.1,2.6-4.4c0.3-0.4,0.7-0.7,1.1-1.1C7.8,8,6.7,7.3,6,6.4c-0.5,0-0.9-0.1-1.4-0.2c-0.5-0.1-0.9-0.5-1-1
			c-0.1-0.5,0.3-0.8,0.7-1c0.3,0,0.5,0,0.8,0C6,4.1,6.9,4.5,7.4,5.3c0.6,0.8,1.4,1.5,2.1,2.3c0.7-0.2,1.3-0.6,1.9-1
			c0.8-0.7,1.8-1.2,2.8-1.5c1.2-0.5,2.4-1.2,3.8-1l2,0.3c2-0.3,4-0.2,6,0.2c1,0.4,1.9,0.9,2.7,1.4c0.5,0.3,1,0.6,1.5,1
			c0.6,0.5,0.5,0.8-0.3,1.4c-0.5-0.3-1-0.6-1.4-1c-1.4-1.1-3.1-1.7-4.9-1.7c-2,0-3.9,0-5.9,0c-1.3-0.1-2.7,0.3-3.8,1.1
			c-0.6,0.4-1.2,0.7-1.9,1c-1.5,0.8-2.7,2-3.5,3.5c-0.4,0.7-0.9,1.2-1.2,1.9c-0.5,0.9-0.9,1.8-1.2,2.8c-0.1,0.5-0.2,1-0.2,1.5
			c-0.1,1.1-0.3,2.2-0.3,3.3c0,0.3,0.1,0.6,0.2,0.9c0.4,1.2,0.8,2.3,1.1,3.5C7,26.3,7.4,27.1,8,27.8c0.2,0.2,0.3,0.4,0.4,0.6
			c0.8,1.2,1.9,2.3,3.1,3c0.8,0.7,1.7,1.3,2.7,1.7c0.5,0.2,1,0.4,1.6,0.5c0.9,0.1,1.9,0.3,2.8,0.6c1.5,0.3,3,0.3,4.5,0.2
			c0.1,0,0.2,0,0.3-0.1l3.8-1.6c1-0.4,1.9-1.1,2.6-1.9c0.6-0.5,1.1-1,1.6-1.5c0.6-0.9,1.2-1.9,1.7-2.9c0.5-0.9,0.9-1.8,1.3-2.8
			c0.1-0.3,0.2-0.5,0.2-0.8c0.2-1.5,0.2-3.1,0.2-4.7c0-1.1-0.3-2.3-0.7-3.4c-0.8-1.8-1.7-3.5-2.9-5C31,9.3,31,9.3,31,8.7
			c1.3-1.3,2.6-2.5,3.8-3.6c0.5-0.4,1.1-0.6,1.7-0.5V5.8z"/>
		<path d="M20.3,8.5c1.7-0.3,3.2,0.4,4.8,1c1.4,0.5,2.7,1.4,3.7,2.6c0.8,1,1.6,2,2.2,3.1c0.3,0.8,0.5,1.7,0.5,2.5
			c0,0.3,0.1,0.5,0.2,0.8c0.4,1.1,0.5,2.3,0.1,3.4c-0.3,1.1-0.7,2.2-1.2,3.3c-0.1,0.2-0.3,0.5-0.5,0.7c-0.1,0.1-0.3,0.2-0.3,0.4
			c-0.7,1.9-2.6,2.4-3.9,3.6c-0.2,0.1-0.4,0.2-0.6,0.3c-1.3,0.4-2.6,0.7-3.9,1.1c-0.3,0-0.6,0-0.8,0c-0.6,0-1.3-0.1-1.9-0.2
			c-0.4,0-0.8-0.1-1.2-0.2c-0.8-0.3-1.5-0.7-2.3-1c-2.4-1-3.9-3-5.3-5c-0.1-0.2-0.2-0.4-0.2-0.5c-0.3-0.9-0.5-1.8-0.8-2.7
			c-0.1-0.3-0.1-0.5-0.2-0.8c-0.1-2.2,0.4-4.3,1.5-6.2c0.8-1.4,1.9-2.6,3.2-3.6c0.6-0.4,1.2-0.9,1.8-1.3C16.7,8.6,18.5,8.2,20.3,8.5
			z M16.8,26.2l0.2-0.1c0.5,0,1,0.1,1.6,0.1c1.3,0.1,2.5,0.1,3.8,0.1c0.3,0,0.5-0.1,0.8-0.3c1.7-0.9,3.1-2.3,4.1-4.1
			c0.2-0.3,0.3-0.6,0.3-1c0.2-1.3,0-2.6-0.5-3.9c-0.4-0.7-0.7-1.4-1-2.2c-0.4-0.8-1.1-1.3-1.9-1.5c-0.8-0.2-1.6-0.3-2.3-0.5
			c-1.9-0.4-3.9,0-5.4,1.2c-0.6,0.4-1.1,1-1.5,1.5c-1.6,1.6-2.1,3.9-1.4,6c0.2,0.7,0.5,1.4,1,2C15.2,24.7,16.1,25.4,16.8,26.2z"/>
		<path d="M20.1,22.9l1.2-0.3c1.2-0.2,2.2-1.2,2.4-2.4c0.1-0.4,0.1-0.9,0.7-1.1c0.6,0.5,0.2,1.3,0.3,1.9c-1.1,1.4-2.3,2.8-4.1,3.3
			l-1.9-0.5c-1.5-0.8-2.5-2.3-2.8-3.9c-0.1-0.5,0-1,0.4-1.5c0.5,0.1,0.9,0.5,0.8,1C17.1,21.3,18.3,22.3,20.1,22.9z"/>
		<path d="M21.2,20.9h-1.5C19,20.5,18.5,20,18.8,19c0.9-0.8,2-0.5,3-0.5C22.2,19.7,22.2,19.9,21.2,20.9z"/>
	</g>
</g>
</svg>
