<?xml version="1.0" encoding="utf-8"?>
<!-- Generator: Adobe Illustrator 21.0.2, SVG Export Plug-In . SVG Version: 6.00 Build 0)  -->
<svg version="1.1" id="Layer_1" xmlns="http://www.w3.org/2000/svg" xmlns:xlink="http://www.w3.org/1999/xlink" x="0px" y="0px"
	 viewBox="0 0 40 40" style="enable-background:new 0 0 40 40;" xml:space="preserve">
<title>Asset 1</title>
<g id="Layer_2">
	<g id="Layer_1-2">
		<path d="M3.4,4.3c0.6-0.1,1.3-0.2,1.9-0.2c1.5,0.1,3.1,0,4.4,1.1c1.9,1.5,2,1.5,4,0.1c1.1-0.7,2.3-1.2,3.5-1.6
			c0.6-0.2,1.3-0.2,1.9-0.1c0.5,0,0.6,0.4,0.5,0.9c-0.2,0.6-0.7,1-1.4,1c-2.1-0.1-3.5,1.3-5.2,2.2c0.3,0.3,0.5,0.6,0.8,0.9
			c1.6,1.5,2.6,3.6,2.8,5.8c0.1,0.2,0.1,0.5,0,0.7c-0.3,1.1-0.7,2.2-1.2,3.2c-0.5,0.8-1.4,1.4-2.4,1.6c-1.9,0.5-2.8,0-4-1.7
			c-0.9-1.3-1.2-2.9-1-4.4c0-1.5,0.5-2.9,1.4-4c0.4-0.6,0.7-1.3,1-1.9c-0.2-0.2-0.4-0.4-0.7-0.6C8.8,6.6,7.6,6.2,6.4,6
			C6,6,5.7,6,5.4,6.2c-1.3,0.7-1.3,0.7-2-0.5V4.3z M9.9,14c0.1,0.8,0.1,1.6,0.3,2.4c0.2,1.1,1.3,1.7,2.4,1.5
			c0.3-0.1,0.5-0.2,0.7-0.3c1.1-0.8,1.6-2.2,1.5-3.6c-0.1-1.9-1.3-3.2-2.4-4.7c-0.1-0.3-0.4-0.4-0.7-0.2c-0.1,0.1-0.2,0.2-0.3,0.3
			C10.5,10.8,10,12.4,9.9,14L9.9,14z"/>
		<path d="M36.6,5.9c-1.1-0.9-2.3-0.6-3.5-0.2c-0.3,0.1-0.6,0.3-1,0.4c-1,0.4-1.9,1.1-2.5,2c0.5,0.6,1,1.1,1.5,1.6
			c1,1.3,1.7,2.8,2.1,4.4c0.1,0.3,0.1,0.6,0,0.8c-0.2,1-0.4,1.9-0.7,2.9c-0.1,0.3-0.2,0.6-0.5,0.8c-1.3,0.9-2.6,1.6-4.2,1.2
			c-0.6-0.2-1.1-0.5-1.5-0.9c-0.7-0.7-1.3-1.6-1.5-2.6c-0.2-1.4-0.2-2.8,0.1-4.2c0.2-0.7,0.6-1.4,1-2c0.3-0.5,0.6-1,0.8-1.6
			c0.2-0.4,0.1-0.8-0.3-1c-0.1,0-0.1-0.1-0.2-0.1l-3.6-1.7c-0.5,0.6-1.3,0.9-2.1,0.7c-0.8-0.2-1-0.6-0.6-1.3
			c0.1-0.2,0.3-0.4,0.4-0.6c0.2-0.4,0.6-0.6,1-0.5c0.7,0.1,1.4,0.2,2.1,0.2c0.9,0.1,1.7,0.5,2.4,1c0.6,0.3,1.4,0.5,1.9,1.2
			c0.2,0.4,0.7,0.1,1-0.1c0.6-0.3,1.2-0.7,1.7-1.1c0.8-0.6,1.8-1.1,2.8-1.5C34.3,3.4,35.5,3,36.6,4V5.9z M31.3,14.4
			c0-0.5-0.1-1-0.3-1.5c-0.2-0.6-0.5-1.1-0.8-1.6c-0.3-0.5-0.7-1-1.1-1.4c-0.6-0.6-1.1-0.5-1.6,0.3c-0.4,0.8-0.7,1.6-0.9,2.4
			c-0.3,0.8-0.4,1.7-0.1,2.6c0.1,0.4,0.2,0.8,0.3,1.1c0.1,0.7,0.6,1.3,1.2,1.5c0.7,0.4,1.5,0.2,2-0.3C30.9,16.8,31.4,15.6,31.3,14.4
			z"/>
	</g>
</g>
</svg>
