<?xml version="1.0" encoding="utf-8"?>
<!-- Generator: Adobe Illustrator 21.0.2, SVG Export Plug-In . SVG Version: 6.00 Build 0)  -->
<svg version="1.1" id="Layer_1" xmlns="http://www.w3.org/2000/svg" xmlns:xlink="http://www.w3.org/1999/xlink" x="0px" y="0px"
	 viewBox="0 0 40 40" style="enable-background:new 0 0 40 40;" xml:space="preserve">
<title>Asset 1</title>
<g id="Layer_2">
	<g id="Layer_1-2">
		<path d="M19.9,15.8c1.9,0.6,3.9,0.7,4.9,2.8c0.4,0.8,1,1.5,1.4,2.4c0.3,0.7,0.4,1.4,0.5,2.1c0.2,0.8,0.3,1,1,0.7
			c1.2-0.6,2.4-1.3,3.6-1.9c0.1,0,0.1-0.1,0.2-0.2c1.1-1.5,2.2-3.1,3.2-4.6c0.2-0.3,0.1-0.7,0.2-1c0.1-0.6,0.3-1.2,0.5-1.7
			c0.3-0.6,1-1,1.7-0.7c0,0,0.1,0,0.1,0c0.6,0.3,0.8,0.9,0.6,1.5c0,0,0,0,0,0c-0.3,0.7-0.6,1.4-1,2.1c-1,2.2-2.5,4.3-4.2,6
			c-0.2,0.3-0.5,0.5-0.9,0.6c-1.4,0.5-2.7,1-4.1,1.6c-0.5,0.2-0.8,0.7-0.8,1.2c-0.2,2.9-1.7,5.6-4.2,7.3c-1.2,0.9-2.3,1.9-3.5,2.9
			c-0.6,0.6-1.5,0.7-2.2,0.3c-0.4-0.2-0.8-0.4-0.7-1c0-0.5,0.5-1,1-1c0.4-0.1,0.8-0.2,1.3-0.3c1-0.3,1.9-0.9,2.6-1.7
			c1.2-1.2,2.5-2.3,3.2-3.9c0.4-0.9,0.7-1.8,1-2.8c0.2-0.5-0.2-0.8-0.8-0.9c-0.5-0.1-1.1-0.2-1.7-0.2c-1.5-0.1-3-0.7-4.1-1.8
			c-0.7-0.6-1.1-1.4-1.4-2.3c-0.5-1.5-0.7-3,0.4-4.4C18.2,16.4,19,16,19.9,15.8z M18.7,19.9c-0.1,1.3,0.5,2.6,1.7,3.2
			c1.2,0.8,2.6,0.9,4,1.3c0.4,0.1,0.8,0,0.9-0.4c0.1-0.1,0.1-0.3,0-0.5c-0.4-1.9-1.4-3.6-2.9-4.9c-0.4-0.4-1-0.6-1.5-0.5
			c-0.7,0.1-1.4,0.3-2,0.6C18.7,18.8,18.8,19.5,18.7,19.9z"/>
	</g>
</g>
</svg>
