<?xml version="1.0" encoding="utf-8"?>
<!-- Generator: Adobe Illustrator 21.0.2, SVG Export Plug-In . SVG Version: 6.00 Build 0)  -->
<svg version="1.1" id="Layer_1" xmlns="http://www.w3.org/2000/svg" xmlns:xlink="http://www.w3.org/1999/xlink" x="0px" y="0px"
	 viewBox="0 0 40 40" style="enable-background:new 0 0 40 40;" xml:space="preserve">
<title>Asset 9</title>
<g id="Layer_2">
	<g id="Layer_1-2">
		<path d="M20.1,11V6.1c0-0.7,0-1.3,0.9-1.4c0.6-0.2,1.3,0.2,1.4,0.8c0.1,0.2,0.1,0.4,0,0.6c-0.1,0.9-0.2,1.8-0.4,2.7
			c-0.4,2.2-0.1,2.8,2,3.4c2.5,1,4.6,2.8,5.9,5.1c0.4,0.7,0.7,1.5,0.8,2.3c0.4,2.9,0.2,5.7-1.7,8c-1.4,1.6-2.8,3.5-5,4.1
			c-0.2,0.1-0.4,0.2-0.7,0.1c-1.4-0.4-2.7,0.2-4.1,0.3c-0.4,0.1-0.8,0.1-1.2,0c-2.1-0.7-4.1-1.7-5.9-3c-0.3-0.2-0.5-0.5-0.7-0.8
			c-1.1-2-1.8-4.1-2.3-6.2c-0.1-0.2-0.1-0.5,0-0.7c0.9-4.5,3.4-8.2,8.4-9.5C18.4,11.7,19.3,11.4,20.1,11z M29,22.1v-0.5
			c0.2-2.4-0.9-4.7-2.8-6.2c-1.4-1.5-3.3-2.2-5.3-2.1c-1.1,0.1-2.2,0.2-3.2,0.6c-2.2,0.8-4.2,1.8-5.3,4c-0.2,0.6-0.4,1.2-0.6,1.8
			c-0.7,1.2-0.8,2.8-0.2,4.1c0.1,0.3,0.1,0.6,0.2,0.9c0.6,2.3,1.8,4.2,4.4,4.7c0.3,0.1,0.5,0.2,0.8,0.3c1.5,0.8,3.2,1,4.8,0.5
			l1.5-0.3c1.9-0.3,3.5-1.4,4.5-3.1C28.4,25.2,29.3,23.7,29,22.1L29,22.1z"/>
		<path d="M16.1,22.9c-0.2-0.4-0.3-0.8-0.3-1.2c0.3-1.8,1.6-3.2,3.3-3.8c1.4-0.2,2.9,0.3,3.9,1.3c0.6,0.7,1,1.6,1.2,2.5
			c0.1,0.3-0.3,0.7-0.5,1.1c-0.3-0.2-0.6-0.4-0.9-0.7c-0.1-0.3-0.3-0.6-0.3-0.9c-0.7-1.4-2.3-2-3.7-1.5c-0.6,0.2-1,0.8-1,1.5
			C17.7,22.1,17,22.8,16.1,22.9z"/>
		<path d="M27,22.5c0,0.4-0.1,0.7-0.1,1.1c-0.1,0.5-0.5,0.8-0.9,0.7l-0.2-0.1c-0.4-0.1-0.7-0.5-0.6-1c0-0.1,0-0.1,0.1-0.2
			c0.4-1.1,0.4-2.4-0.1-3.5c-0.4-1.1-1.4-1.5-2.2-2.2c-0.2-0.2-0.6-0.3-0.8-0.5c-0.2-0.3-0.3-0.7-0.3-1.1c0.4-0.1,0.9-0.4,1.1-0.3
			c0.8,0.5,1.5,1,2.2,1.6C26.9,18.5,26.9,20.4,27,22.5z"/>
		<path d="M13.3,23.7c-0.3-1.5-0.2-3.1,0.3-4.6c0.6-1.8,2.3-1.8,3.6-2.9c-0.8,1.4-1.6,2.6-2.1,3.8c-0.3,0.6-0.4,1.3-0.3,2
			C14.7,23.1,14.6,23.3,13.3,23.7z"/>
	</g>
</g>
</svg>
